<svg height="24" viewBox="0 0 24 24" width="24" xmlns="http://www.w3.org/2000/svg"><path d="M10.812 19.917l-1.764-.548c-.185-.056-.29-.263-.237-.462l3.947-14.57c.052-.198.246-.3.43-.254l1.764.548c.185.056.29.263.237.462l-3.947 14.57c-.055.198-.246.313-.43.254zM7.515 16.44l1.258-1.438a.39.39 0 0 0-.023-.533L6.13 12l2.62-2.47c.147-.14.16-.38.023-.533L7.515 7.56a.33.33 0 0 0-.492-.015l-4.167 4.183a.39.39 0 0 0 0 .542l4.167 4.186c.142.143.36.136.492-.015zm9.462.02l4.167-4.186a.39.39 0 0 0 0-.542l-4.167-4.2c-.14-.14-.36-.133-.492.015l-1.258 1.438a.39.39 0 0 0 .023.533L17.87 12l-2.62 2.47c-.147.14-.16.38-.023.533l1.258 1.438a.33.33 0 0 0 .492.019z"/></svg>
